<mxfile host="app.diagrams.net" agent="Mozilla/5.0 (X11; Ubuntu; Linux x86_64; rv:132.0) Gecko/20100101 Firefox/132.0" version="24.8.3">
  <diagram name="Page-1" id="LpXcK48WuC6KOd432P5y">
    <mxGraphModel dx="2004" dy="1125" grid="1" gridSize="10" guides="1" tooltips="1" connect="1" arrows="1" fold="1" page="1" pageScale="1" pageWidth="850" pageHeight="1100" math="0" shadow="0">
      <root>
        <mxCell id="0" />
        <mxCell id="1" parent="0" />
        <mxCell id="2eqjHNFyAO9qsCuGgQzZ-1" value="" style="shape=image;imageAspect=0;aspect=fixed;verticalLabelPosition=bottom;verticalAlign=top;image=data:image/svg+xml,PHN2ZyB4bWxucz0iaHR0cDovL3d3dy53My5vcmcvMjAwMC9zdmciIHZlcnNpb249IjEuMSIgY2xhc3M9Imljb24iIHZpZXdCb3g9IjAgLTM5LjUgMTEwMyAxMTAzIiBoZWlnaHQ9IjgwMHB4IiB3aWR0aD0iODAwcHgiPjxwYXRoIGZpbGw9IiM0RDZGQkIiIGQ9Ik0xMTAyLjY5ODE5MyAzNTguNDUxMmMwLTMuNTU3NDUyLTIuMTY3NDY3LTUuMTkzOTU2LTQuODM1NTU2LTMuNjU0MTYzbC0yMzYuODcwMTYzIDEzNi43NTcwOTZ2NDk5Ljk4Njk2M2MwIDcuMTE0OTA0IDQuMzMxMTQxIDEwLjM4OTgwNyA5LjY2NzMxOSA3LjMxMDIyM2wyMjcuMjAyODQ0LTEzMS4xNzYyOTdjMi42NjgwODktMS41Mzk3OTMgNC44MzU1NTYtNS42Nzk0MDcgNC44MzU1NTYtOS4yMzY4NTlWMzU4LjQ1MTJ6Ii8+PHBhdGggZmlsbD0iIzRENkZCQiIgZD0iTTg2Mi40MjQxNzggNDkwLjcyNzM0OEwyNDkuNTczNDUyIDEzNi44OTc0MjJjLTQuMjc5OTQxLTIuNDcwODc0LTcuNzU1ODUyIDAuMTU1NDk2LTcuNzU1ODUyIDUuODYzMzQ4VjY0NC4yNjY2NjdjMCAyLjg1MzkyNiAxLjczNzAwNyA2LjE3NDM0MSAzLjg3NzkyNiA3LjQwODgyOUw4NDMuMDM2NDQ0IDk5Ni41NTExMTFjMTAuNzAwOCA2LjE3ODEzMyAxOS4zODc3MzMtMC4zODg3NDEgMTkuMzg3NzM0LTE0LjY1NjQ3NFY0OTAuNzI3MzQ4eiIvPjxwYXRoIGZpbGw9IiM2RDhBQ0EiIGQ9Ik00OTkuNjI2NjY3IDMuODIyOTMzYy04LjAwNDI2Ny00LjYyMTI3NC0yMC4xMzEwODEtNS4xMjM3OTMtMjcuMDYyMDQ1LTEuMTIwNzExTDI0Ni40OTc2NTkgMTMzLjIyMjRjLTYuOTMyODU5IDQuMDAxMTg1LTYuMDYyNDU5IDExLjAwMjMxMSAxLjk0MTgwOCAxNS42MjM1ODVsNTk1Ljg5NzgzNyAzNDQuMDQxMjQ1YzguMDA0MjY3IDQuNjIxMjc0IDIwLjEzMTA4MSA1LjEyMzc5MyAyNy4wNjIwNDQgMS4xMjI2MDdsMjI2LjA2Njk2My0xMzAuNTIwMTc4YzYuOTMyODU5LTQuMDAzMDgxIDYuMDYyNDU5LTExLjAwNDIwNy0xLjk0MTgwNy0xNS42MjU0ODFMNDk5LjYyNjY2NyAzLjgyMjkzM3oiLz48cGF0aCBmaWxsPSIjNEQ2RkJCIiBkPSJNNDk5LjYyNjY2NyA1MDguMjM3NzQ4Yy04LjAwNDI2Ny00LjYyMTI3NC0yMC4xMzEwODEtNS4xMjM3OTMtMjcuMDYyMDQ1LTEuMTIwNzExbC0yMjYuMDY2OTYzIDEzMC41MjAxNzhjLTYuOTMyODU5IDQuMDAxMTg1LTYuMDYyNDU5IDExLjAwMjMxMSAxLjk0MTgwOCAxNS42MjM1ODVsNTk1Ljg5NzgzNyAzNDQuMDQxMjQ0YzguMDA0MjY3IDQuNjIxMjc0IDIwLjEzMTA4MSA1LjEyMzc5MyAyNy4wNjIwNDQgMS4xMjI2MDhsMjI2LjA2Njk2My0xMzAuNTIwMTc4YzYuOTMyODU5LTQuMDAzMDgxIDYuMDYyNDU5LTExLjAwNDIwNy0xLjk0MTgwNy0xNS42MjU0ODFMNDk5LjYyNjY2NyA1MDguMjM3NzQ4eiIvPjxwYXRoIGZpbGw9IiM0NzYyQUYiIGQ9Ik0yOS43NDM0MDcgMjQzLjA2NTM2M2MtMi4yNTQ2OTYtMS4zMDI3NTYtNS42Njk5MjYtMS40NDMwODEtNy42MjEyMTQtMC4zMTY2ODJsLTE4LjE5NDk2MyAxMC41MDM1ODZjLTEuOTUxMjg5IDEuMTI4Mjk2LTEuNzA2NjY3IDMuMTAwNDQ0IDAuNTQ4MDI5IDQuNDAxMzAzbDQ4OS45NDYwNzQgMjgyLjg3MDUxOWMyLjI1NDY5NiAxLjMwMjc1NiA1LjY2OTkyNiAxLjQ0MzA4MSA3LjYyMzExMSAwLjMxNjY4MWwxOC4xOTMwNjctMTAuNTAzNTg1YzEuOTUzMTg1LTEuMTI4Mjk2IDEuNzA2NjY3LTMuMTAwNDQ0LTAuNTQ2MTMzLTQuNDAxMzA0TDI5Ljc0MzQwNyAyNDMuMDY1MzYzeiIvPjxwYXRoIGZpbGw9IiM0NzYyQUYiIGQ9Ik01MjEuMjkzNzQ4IDUyOS4wNjg1NjNjMC0wLjg5MzE1Ni0wLjU0MjM0MS0xLjMwMjc1Ni0xLjIxMTczMy0wLjkxNzgwN2wtMjEuODIyNTc4IDEyLjU5ODk5MmMtMC42NjkzOTMgMC4zODY4NDQtMS4yMTE3MzMgMS40MjYwMTUtMS4yMTE3MzMgMi4zMTcyNzR2NDI5LjA3NDk2M2MwIDAuODkxMjU5IDAuNTQyMzQxIDEuMzAyNzU2IDEuMjExNzMzIDAuOTE1OTExbDIxLjgyMjU3OC0xMi41OTg5OTJjMC42NjkzOTMtMC4zODY4NDQgMS4yMTE3MzMtMS40MjQxMTkgMS4yMTE3MzMtMi4zMTcyNzRWNTI5LjA2ODU2M3oiLz48cGF0aCBmaWxsPSIjNkQ4QUNBIiBkPSJNNDk5LjUyMDQ3NCA1NDkuOTg2NjA3YzAtNy4zMzI5NzgtNC40NjM4ODEtMTUuODY0NDE1LTkuOTYzMTQxLTE5LjAzODgxNEw5Ljk2NTAzNyAyNTQuMDU0NEM0LjQ2Mzg4MSAyNTAuODggMCAyNTQuMjU1NDA3IDAgMjYxLjU4NjQ4OXY0MTYuMjc4NzU1YzAgNy4zMzEwODEgNC40NjM4ODEgMTUuODYyNTE5IDkuOTY1MDM3IDE5LjAzNjkxOWw0NzkuNTkyMjk2IDI3Ni44OTMzOTNjNS40OTkyNTkgMy4xNzYyOTYgOS45NjMxNDEtMC4xOTkxMTEgOS45NjMxNDEtNy41MzIwODlWNTQ5Ljk4NjYwN3oiLz48cGF0aCBmaWxsPSIjOTJCM0UxIiBkPSJNNDY3Ljc1NzUxMSA1NjQuNTIxNzE5YzAtNi4xNzQzNDEtMy43NTg0NTktMTMuMzU3NTExLTguMzg5MjE1LTE2LjAzMTI4OWwtNDIzLjAwNjgxNS0yNDQuMjI0Yy00LjYzMDc1Ni0yLjY3Mzc3OC04LjM5MTExMSAwLjE2ODc3LTguMzkxMTExIDYuMzQzMTExdjM1MC41MzAzN2MwIDYuMTc0MzQxIDMuNzYwMzU2IDEzLjM1NzUxMSA4LjM5MTExMSAxNi4wMzEyODlsNDIzLjAwNjgxNSAyNDQuMjIyMTA0YzQuNjMwNzU2IDIuNjczNzc4IDguMzg5MjE1LTAuMTY4NzcgOC4zODkyMTUtNi4zNDMxMTFWNTY0LjUyMTcxOXoiLz48cGF0aCBmaWxsPSIjNDc2MkFGIiBkPSJNMTM4LjYxMTY3NCA4MDIuODc2NjgxYy03LjkxODkzMy00LjU3MTk3LTE5LjkxNjgtNS4wNjg4LTI2Ljc3MzgwNy0xLjEwOTMzM0wxMi40MjY0MyA4NTkuMTYyNTQ4Yy02Ljg1ODkwNCAzLjk1OTQ2Ny01Ljk5NjA4OSAxMC44ODY2MzcgMS45MjI4NDQgMTUuNDU4NjA4bDI1MC45ODk5ODUgMTQ0LjkwOTI3NGM3LjkxODkzMyA0LjU3MTk3IDE5LjkxNjggNS4wNjg4IDI2Ljc3NTcwNCAxLjEwOTMzM2w5OS40MDk1NDEtNTcuMzk1MmM2Ljg1ODkwNC0zLjk1OTQ2NyA1Ljk5Nzk4NS0xMC44ODY2MzctMS45MjA5NDgtMTUuNDU4NjA3TDEzOC42MTE2NzQgODAyLjg3NjY4MXoiLz48cGF0aCBmaWxsPSIjRTRFOUY1IiBkPSJNMjQ3Ljg2NDg4OSA4MzQuMjU0Njk2bC0yMy41MjE2NTktMTMuNTc5Mzc3djQ2LjUwMjg3NGwyMy41MjE2NTkgMTMuNTc5Mzc3di00Ni41MDI4NzR6Ii8+PHBhdGggZmlsbD0iIzZEOEFDQSIgZD0iTTEwNzYuOTQyNjk2IDUwMC4zNjYyMjJsLTE2My42Mjc2MTUgOTQuNDcxNTg1djU3LjQyNTU0MWwxNjMuNjI3NjE1LTk0LjQ3MTU4NXYtNTcuNDI1NTQxek0xMDc2Ljk0MjY5NiA2MDQuNzE1NjE1bC0xNjMuNjI3NjE1IDk0LjQ3MTU4NXY1Ny40MjM2NDRsMTYzLjYyNzYxNS05NC40Njk2ODh2LTU3LjQyNTU0MXoiLz48cGF0aCBmaWxsPSIjRkZGRkZGIiBkPSJNMTAxMS4zMDgwODkgNzU2LjExMDIyMmM4LjkyOTY1OS01LjE1NjAzIDE2LjE3NzMwNC0wLjk2OTAwNyAxNi4xNzczMDQgOS4zNDExNTZzLTcuMjQ3NjQ0IDIyLjg2NzQzNy0xNi4xNzczMDQgMjguMDIxNTdjLTguOTI5NjU5IDUuMTU2MDMtMTYuMTc5MiAwLjk3MDkwNC0xNi4xNzkyLTkuMzQxMTU1IDAtMTAuMzEwMTYzIDcuMjQ5NTQxLTIyLjg2NTU0MSAxNi4xNzkyLTI4LjAyMTU3MXoiLz48L3N2Zz4=;" vertex="1" parent="1">
          <mxGeometry x="40" y="400" width="120" height="120" as="geometry" />
        </mxCell>
        <mxCell id="2eqjHNFyAO9qsCuGgQzZ-2" value="" style="shape=image;imageAspect=0;aspect=fixed;verticalLabelPosition=bottom;verticalAlign=top;image=data:image/svg+xml,PHN2ZyB4bWxucz0iaHR0cDovL3d3dy53My5vcmcvMjAwMC9zdmciIHZlcnNpb249IjEuMSIgY2xhc3M9Imljb24iIHZpZXdCb3g9IjAgMCAxMDI0IDEwMjQiIGhlaWdodD0iODAwcHgiIHdpZHRoPSI4MDBweCI+PHBhdGggZmlsbD0iIzM3QkJFRiIgZD0iTTQ0Ny41IDk2MC4zbC0zMjEtMTEwdi02NDJsMzIxIDgyeiIvPjxwYXRoIGZpbGw9IiMyNDgxQkEiIGQ9Ik00NDcuNSA5NjAuM2w0NTAtMjQwdi02MDBsLTQ1MCAxNzB6Ii8+PHBhdGggZmlsbD0iIzNFRDZGRiIgZD0iTTEyNi41IDIwOC4zbDMyMSA4MiA0NTAtMTcwLTM0NC40LTU2LjZ6Ii8+PHBhdGggZmlsbD0iI0Q0RjdGRiIgZD0iTTQwMC4zIDM0OC45djgwbC0yMzktNjB2LTgwbDIzOSA2MHogbS0yMzkgNDguM2wyMzkgNjB2LTEwbC0yMzktNjB2MTB6IG0wIDIzbDIzOSA2MHYtMTBsLTIzOS02MHYxMHogbTAgMjNsMjM5IDYwdi0xMGwtMjM5LTYwdjEweiIvPjxwYXRoIGZpbGw9IiMxMTNCNDIiIGQ9Ik0xNzUuNyAzMDguNHYzNGwyMTAuMiA1M3YtMzR6TTE3NS43IDM2My40bDIxMC4yIDUzdi0xMy4zbC0yMTAuMi01M3oiLz48cGF0aCBmaWxsPSIjMDA3MUJDIiBkPSJNNDQ3LjUgODk0LjF2LTUuMmwtMTc0LjQtNTUuMy0xLjIgNC44ek0yNzEuOSA4MDkuM0w0NDcuNSA4NjR2LTUuM2wtMTc0LjQtNTQuM3pNMjcxLjkgNzgwLjFsMTc1LjYgNTMuN3YtNS4ybC0xNzQuNC01My40ek00NDcuNSA3MDcuOWwtMTc0LjQtNDkuMy0xLjIgNC44IDE3NS42IDQ5Ljd6TTI3MS45IDY5Mi42bDE3NS42IDUwLjd2LTUuMmwtMTc0LjQtNTAuNHpNMjcxLjkgNzUwLjlsMTc1LjYgNTIuN3YtNS4ybC0xNzQuNC01Mi4zek0yNzEuOSA3MjEuOGwxNzUuNiA1MS43di01LjNsLTE3NC40LTUxLjN6Ii8+PHBhdGggZmlsbD0iI0ZGRkZGRiIgZD0iTTM3OS41IDU0MC44Yy05LjQtMy40LTE3IDEuNi0xNyAxMS4yczcuNiAyMC4xIDE3IDIzLjIgMTctMS45IDE3LTExLjItNy42LTE5LjgtMTctMjMuMnpNMzc5LjUgNjAzLjZjLTMuOS0xLjItNyAxLTcgNC45czMuMSA4LjEgNyA5LjMgNy0xIDctNC45YzAtMy45LTMuMS04LTctOS4zeiIvPjwvc3ZnPg==;" vertex="1" parent="1">
          <mxGeometry x="690" y="400" width="120" height="120" as="geometry" />
        </mxCell>
        <mxCell id="2eqjHNFyAO9qsCuGgQzZ-6" value="&lt;div&gt;&lt;font style=&quot;font-size: 15px;&quot;&gt;TCPLS&lt;/font&gt;&lt;/div&gt;&lt;div style=&quot;font-size: 15px;&quot;&gt;Session&lt;br&gt;&lt;/div&gt;" style="ellipse;shape=cloud;whiteSpace=wrap;html=1;" vertex="1" parent="1">
          <mxGeometry x="350" y="390" width="170" height="130" as="geometry" />
        </mxCell>
        <mxCell id="2eqjHNFyAO9qsCuGgQzZ-10" value="" style="rounded=1;whiteSpace=wrap;html=1;" vertex="1" parent="1">
          <mxGeometry x="230" y="530" width="40" as="geometry" />
        </mxCell>
        <mxCell id="2eqjHNFyAO9qsCuGgQzZ-15" value="" style="rounded=1;whiteSpace=wrap;html=1;strokeColor=#007FFF;fillColor=#007FFF;" vertex="1" parent="1">
          <mxGeometry x="280" y="460" width="30" height="20" as="geometry" />
        </mxCell>
        <mxCell id="2eqjHNFyAO9qsCuGgQzZ-16" value="" style="rounded=1;whiteSpace=wrap;html=1;fillColor=#FF3333;strokeColor=#FF3333;" vertex="1" parent="1">
          <mxGeometry x="180" y="460" width="30" height="20" as="geometry" />
        </mxCell>
        <mxCell id="2eqjHNFyAO9qsCuGgQzZ-17" value="" style="rounded=1;whiteSpace=wrap;html=1;" vertex="1" parent="1">
          <mxGeometry x="230" y="460" width="30" height="20" as="geometry" />
        </mxCell>
        <mxCell id="2eqjHNFyAO9qsCuGgQzZ-18" value="" style="rounded=1;whiteSpace=wrap;html=1;" vertex="1" parent="1">
          <mxGeometry x="320" y="460" width="30" height="20" as="geometry" />
        </mxCell>
        <mxCell id="2eqjHNFyAO9qsCuGgQzZ-19" value="" style="rounded=1;whiteSpace=wrap;html=1;strokeColor=#007FFF;fillColor=#007FFF;" vertex="1" parent="1">
          <mxGeometry x="620" y="460" width="30" height="20" as="geometry" />
        </mxCell>
        <mxCell id="2eqjHNFyAO9qsCuGgQzZ-20" value="" style="rounded=1;whiteSpace=wrap;html=1;fillColor=#FF3333;strokeColor=#FF3333;" vertex="1" parent="1">
          <mxGeometry x="520" y="460" width="30" height="20" as="geometry" />
        </mxCell>
        <mxCell id="2eqjHNFyAO9qsCuGgQzZ-21" value="" style="rounded=1;whiteSpace=wrap;html=1;" vertex="1" parent="1">
          <mxGeometry x="570" y="460" width="30" height="20" as="geometry" />
        </mxCell>
        <mxCell id="2eqjHNFyAO9qsCuGgQzZ-22" value="" style="rounded=1;whiteSpace=wrap;html=1;" vertex="1" parent="1">
          <mxGeometry x="660" y="460" width="30" height="20" as="geometry" />
        </mxCell>
        <mxCell id="2eqjHNFyAO9qsCuGgQzZ-23" value="" style="endArrow=classic;html=1;rounded=0;" edge="1" parent="1">
          <mxGeometry width="50" height="50" relative="1" as="geometry">
            <mxPoint x="260" y="460" as="sourcePoint" />
            <mxPoint x="320" y="400" as="targetPoint" />
          </mxGeometry>
        </mxCell>
        <mxCell id="2eqjHNFyAO9qsCuGgQzZ-24" value="" style="endArrow=classic;html=1;rounded=0;entryX=1;entryY=0;entryDx=0;entryDy=0;" edge="1" parent="1" target="2eqjHNFyAO9qsCuGgQzZ-1">
          <mxGeometry width="50" height="50" relative="1" as="geometry">
            <mxPoint x="230" y="460" as="sourcePoint" />
            <mxPoint x="280" y="410" as="targetPoint" />
          </mxGeometry>
        </mxCell>
        <mxCell id="2eqjHNFyAO9qsCuGgQzZ-25" value="Stream Change Frame" style="rounded=0;whiteSpace=wrap;html=1;" vertex="1" parent="1">
          <mxGeometry x="160" y="340" width="160" height="60" as="geometry" />
        </mxCell>
      </root>
    </mxGraphModel>
  </diagram>
</mxfile>
